<?xml version="1.0" encoding="UTF-8" standalone="no"?>
<svg width="62px" height="50px" viewBox="0 0 62 50" version="1.1" xmlns="http://www.w3.org/2000/svg" xmlns:xlink="http://www.w3.org/1999/xlink" xmlns:sketch="http://www.bohemiancoding.com/sketch/ns">
    <!-- Generator: Sketch 3.5.1 (25234) - http://www.bohemiancoding.com/sketch -->
    <title>_assets/resources/icons/tabbar/diet</title>
    <desc>Created with Sketch.</desc>
    <defs>
        <path d="M28,27.414 L30.586,30 L28,32.586 L28,27.414 Z M26.618,24.076 C26.244,24.23 26,24.596 26,25 L26,35 C26,35.404 26.244,35.77 26.618,35.924 C26.74,35.974 26.872,36 27,36 C27.26,36 27.516,35.898 27.708,35.706 L32.708,30.706 C33.098,30.316 33.098,29.684 32.708,29.292 L27.708,24.292 C27.422,24.008 26.988,23.924 26.618,24.076 L26.618,24.076 Z" id="path-1"></path>
        <path d="M38.129,43.379 L32.927,46.845 L23.447,42.105 C23.307,42.035 23.153,42.001 23.001,42.001 C22.847,42.001 22.693,42.035 22.553,42.105 L13.073,46.845 L7.871,43.379 L2.161,21.489 L15.031,14.133 L22.553,17.895 C22.693,17.965 22.847,18.001 23.001,18.001 C23.113,18.001 23.229,17.981 23.341,17.939 C23.363,17.933 23.375,17.915 23.395,17.907 C23.413,17.899 23.431,17.903 23.447,17.895 L30.969,14.133 L43.839,21.489 L38.129,43.379 Z M25.645,4.881 L32.167,3.431 L29.345,9.075 L22.739,9.897 L25.645,4.881 Z M45.497,20.131 L31.497,12.131 C31.205,11.971 30.851,11.957 30.553,12.105 L23.557,15.605 L22.237,11.973 L30.123,10.993 C30.455,10.951 30.745,10.747 30.895,10.447 L34.895,2.447 C35.067,2.101 35.025,1.689 34.789,1.385 C34.549,1.081 34.159,0.937 33.783,1.023 L24.783,3.023 C24.509,3.085 24.275,3.255 24.135,3.499 L21.075,8.779 L19.939,5.659 C19.753,5.139 19.179,4.871 18.659,5.061 C18.139,5.249 17.871,5.823 18.061,6.341 L21.203,14.985 L15.447,12.105 C15.149,11.957 14.795,11.971 14.503,12.131 L0.505,20.131 C0.111,20.355 -0.081,20.815 0.033,21.253 L6.033,44.253 C6.093,44.491 6.243,44.695 6.445,44.833 L12.445,48.833 C12.747,49.031 13.127,49.053 13.447,48.895 L23.001,44.117 L32.553,48.895 C32.693,48.965 32.847,49.001 33.001,49.001 C33.193,49.001 33.387,48.943 33.555,48.833 L39.555,44.833 C39.757,44.695 39.907,44.491 39.967,44.253 L45.967,21.253 C46.083,20.815 45.889,20.355 45.497,20.131 L45.497,20.131 Z" id="path-2"></path>
        <path d="M18,32.586 L15.414,30 L18,27.414 L18,32.586 Z M19.382,24.076 C19.014,23.924 18.58,24.008 18.292,24.294 L13.292,29.294 C12.902,29.684 12.902,30.316 13.292,30.708 L18.292,35.708 C18.484,35.898 18.74,36 19,36 C19.128,36 19.26,35.974 19.382,35.924 C19.756,35.77 20,35.404 20,35 L20,25 C20,24.596 19.756,24.23 19.382,24.076 L19.382,24.076 Z" id="path-3"></path>
    </defs>
    <g id="Page-1" stroke="none" stroke-width="1" fill="none" fill-rule="evenodd" sketch:type="MSPage">
        <g id="tabbar-icons" sketch:type="MSArtboardGroup" transform="translate(-62.000000, 0.000000)">
            <g id="diet" sketch:type="MSLayerGroup" transform="translate(62.000000, 0.000000)">
                <g id="Icon" transform="translate(8.000000, 0.000000)">
                    <g id="Fill-213">
                        <use fill="#FFFFFF" fill-rule="evenodd" sketch:type="MSShapeGroup" xlink:href="#path-1"></use>
                        <use fill="none" xlink:href="#path-1"></use>
                    </g>
                    <g id="Fill-214">
                        <use fill="#FFFFFF" fill-rule="evenodd" sketch:type="MSShapeGroup" xlink:href="#path-2"></use>
                        <use fill="none" xlink:href="#path-2"></use>
                    </g>
                    <g id="Fill-215">
                        <use fill="#FFFFFF" fill-rule="evenodd" sketch:type="MSShapeGroup" xlink:href="#path-3"></use>
                        <use fill="none" xlink:href="#path-3"></use>
                    </g>
                </g>
            </g>
        </g>
    </g>
</svg>