<?xml version="1.0" encoding="UTF-8" standalone="no"?>
<svg width="62px" height="50px" viewBox="0 0 62 50" version="1.1" xmlns="http://www.w3.org/2000/svg" xmlns:xlink="http://www.w3.org/1999/xlink" xmlns:sketch="http://www.bohemiancoding.com/sketch/ns">
    <!-- Generator: Sketch 3.5.1 (25234) - http://www.bohemiancoding.com/sketch -->
    <title>_assets/resources/icons/tabbar/me</title>
    <desc>Created with Sketch.</desc>
    <defs>
        <path d="M46,31.4648 L42,34.1308 L42,25.0008 L46,25.0008 L46,31.4648 Z M40,39.3648 L24,46.8948 L8,39.3648 L8,36.0008 L8,24.0008 L8,19.0008 L40,19.0008 L40,24.0008 L40,36.0008 L40,39.3648 Z M2,31.4648 L2,25.0008 L6,25.0008 L6,34.1308 L2,31.4648 Z M8,10.6348 L24,3.1048 L40,10.6348 L40,17.0008 L8,17.0008 L8,15.0008 L13,15.0008 C13.552,15.0008 14,14.5528 14,14.0008 C14,13.4468 13.552,13.0008 13,13.0008 L8,13.0008 L8,10.6348 Z M47,23.0008 L42,23.0008 L42,19.0008 L47,19.0008 C47.552,19.0008 48,18.5528 48,18.0008 C48,17.4468 47.552,17.0008 47,17.0008 L42,17.0008 L42,10.0008 C42,9.6128 41.776,9.2588 41.426,9.0948 L24.426,1.0948 C24.156,0.9668 23.844,0.9668 23.574,1.0948 L6.574,9.0948 C6.224,9.2588 6,9.6128 6,10.0008 L6,23.0008 L1,23.0008 C0.448,23.0008 0,23.4468 0,24.0008 L0,32.0008 C0,32.3348 0.166,32.6468 0.446,32.8328 L6,36.5348 L6,40.0008 C6,40.3868 6.224,40.7408 6.574,40.9048 L23.574,48.9048 C23.708,48.9688 23.854,49.0008 24,49.0008 C24.146,49.0008 24.292,48.9688 24.426,48.9048 L41.426,40.9048 C41.776,40.7408 42,40.3868 42,40.0008 L42,36.5348 L47.554,32.8328 C47.834,32.6468 48,32.3348 48,32.0008 L48,24.0008 C48,23.4468 47.552,23.0008 47,23.0008 L47,23.0008 Z" id="path-1"></path>
        <path id="path-2" d="M30.6064,36.081 L24.0004,38.913 L17.3944,36.081 C16.8904,35.859 16.2984,36.097 16.0804,36.607 C15.8624,37.113 16.0984,37.701 16.6064,37.919 L23.6064,40.919 C23.7304,40.973 23.8664,40.999 24.0004,40.999 C24.1344,40.999 24.2684,40.973 24.3944,40.919 L31.3944,37.919 C31.9004,37.701 32.1364,37.113 31.9184,36.607 C31.7004,36.097 31.1064,35.859 30.6064,36.081"></path>
        <path id="path-3" d="M31,31 C31.552,31 32,30.552 32,30 L32,24 C32,23.448 31.552,23 31,23 C30.448,23 30,23.448 30,24 L30,30 C30,30.552 30.448,31 31,31"></path>
        <path id="path-4" d="M17,31 C17.552,31 18,30.552 18,30 L18,24 C18,23.448 17.552,23 17,23 C16.448,23 16,23.448 16,24 L16,30 C16,30.552 16.448,31 17,31"></path>
    </defs>
    <g id="Page-1" stroke="none" stroke-width="1" fill="none" fill-rule="evenodd" sketch:type="MSPage">
        <g id="tabbar-icons" sketch:type="MSArtboardGroup" transform="translate(-186.000000, 0.000000)">
            <g id="me" sketch:type="MSLayerGroup" transform="translate(186.000000, 0.000000)">
                <g id="Icon" transform="translate(7.000000, 0.000000)">
                    <g id="Fill-206">
                        <use fill="#FFFFFF" fill-rule="evenodd" sketch:type="MSShapeGroup" xlink:href="#path-1"></use>
                        <use fill="none" xlink:href="#path-1"></use>
                    </g>
                    <g id="Fill-207">
                        <use fill="#FFFFFF" fill-rule="evenodd" sketch:type="MSShapeGroup" xlink:href="#path-2"></use>
                        <use fill="none" xlink:href="#path-2"></use>
                    </g>
                    <g id="Fill-208">
                        <use fill="#FFFFFF" fill-rule="evenodd" sketch:type="MSShapeGroup" xlink:href="#path-3"></use>
                        <use fill="none" xlink:href="#path-3"></use>
                    </g>
                    <g id="Fill-209">
                        <use fill="#FFFFFF" fill-rule="evenodd" sketch:type="MSShapeGroup" xlink:href="#path-4"></use>
                        <use fill="none" xlink:href="#path-4"></use>
                    </g>
                </g>
            </g>
        </g>
    </g>
</svg>