<?xml version="1.0" encoding="UTF-8" standalone="no"?>
<svg width="62px" height="50px" viewBox="0 0 62 50" version="1.1" xmlns="http://www.w3.org/2000/svg" xmlns:xlink="http://www.w3.org/1999/xlink" xmlns:sketch="http://www.bohemiancoding.com/sketch/ns">
    <!-- Generator: Sketch 3.5.1 (25234) - http://www.bohemiancoding.com/sketch -->
    <title>_assets/resources/icons/tabbar/more</title>
    <desc>Created with Sketch.</desc>
    <defs></defs>
    <g id="Page-1" stroke="none" stroke-width="1" fill="none" fill-rule="evenodd" sketch:type="MSPage">
        <g id="tabbar-icons" sketch:type="MSArtboardGroup" transform="translate(-248.000000, 0.000000)" fill="#FFFFFF">
            <g id="more" sketch:type="MSLayerGroup" transform="translate(248.000000, 0.000000)">
                <path d="M34.4142136,34.3031025 L34.4142136,34.3031025 L35,32.8888889 L35,41.1111111 L34.4142136,39.6968975 L40.3031025,45.5857864 L38.8888889,45 L47.1111111,45 L45.6968975,45.5857864 L51.5857864,39.6968975 L51,41.1111111 L51,32.8888889 L51.5857864,34.3031025 L45.6968975,28.4142136 L47.1111111,29 L38.8888889,29 L40.3031025,28.4142136 L34.4142136,34.3031025 Z M33,32.8888889 L38.8888889,27 L47.1111111,27 L53,32.8888889 L53,41.1111111 L47.1111111,47 L38.8888889,47 L33,41.1111111 L33,32.8888889 L33,32.8888889 Z M10.4142136,34.3031025 L10.4142136,34.3031025 L11,32.8888889 L11,41.1111111 L10.4142136,39.6968975 L16.3031025,45.5857864 L14.8888889,45 L23.1111111,45 L21.6968975,45.5857864 L27.5857864,39.6968975 L27,41.1111111 L27,32.8888889 L27.5857864,34.3031025 L21.6968975,28.4142136 L23.1111111,29 L14.8888889,29 L16.3031025,28.4142136 L10.4142136,34.3031025 Z M9,32.8888889 L14.8888889,27 L23.1111111,27 L29,32.8888889 L29,41.1111111 L23.1111111,47 L14.8888889,47 L9,41.1111111 L9,32.8888889 L9,32.8888889 Z M34.4142136,10.3031025 L34.4142136,10.3031025 L35,8.88888889 L35,17.1111111 L34.4142136,15.6968975 L40.3031025,21.5857864 L38.8888889,21 L47.1111111,21 L45.6968975,21.5857864 L51.5857864,15.6968975 L51,17.1111111 L51,8.88888889 L51.5857864,10.3031025 L45.6968975,4.41421356 L47.1111111,5 L38.8888889,5 L40.3031025,4.41421356 L34.4142136,10.3031025 Z M33,8.88888889 L38.8888889,3 L47.1111111,3 L53,8.88888889 L53,17.1111111 L47.1111111,23 L38.8888889,23 L33,17.1111111 L33,8.88888889 L33,8.88888889 Z M10.4142136,10.3031025 L10.4142136,10.3031025 L11,8.88888889 L11,17.1111111 L10.4142136,15.6968975 L16.3031025,21.5857864 L14.8888889,21 L23.1111111,21 L21.6968975,21.5857864 L27.5857864,15.6968975 L27,17.1111111 L27,8.88888889 L27.5857864,10.3031025 L21.6968975,4.41421356 L23.1111111,5 L14.8888889,5 L16.3031025,4.41421356 L10.4142136,10.3031025 Z M9,8.88888889 L14.8888889,3 L23.1111111,3 L29,8.88888889 L29,17.1111111 L23.1111111,23 L14.8888889,23 L9,17.1111111 L9,8.88888889 L9,8.88888889 Z" id="Shape" sketch:type="MSShapeGroup"></path>
            </g>
        </g>
    </g>
</svg>