<?xml version="1.0" encoding="UTF-8" standalone="no"?>
<svg width="62px" height="50px" viewBox="0 0 62 50" version="1.1" xmlns="http://www.w3.org/2000/svg" xmlns:xlink="http://www.w3.org/1999/xlink" xmlns:sketch="http://www.bohemiancoding.com/sketch/ns">
    <!-- Generator: Sketch 3.5.1 (25234) - http://www.bohemiancoding.com/sketch -->
    <title>_assets/resources/icons/tabbar/today</title>
    <desc>Created with Sketch.</desc>
    <defs>
        <path d="M46,32.586 L32.586,46 L13.46,46 L2,32.63 L2,15.414 L15.414,2 L32.586,2 L46,15.414 L46,32.586 Z M47.708,14.294 L33.708,0.294 C33.52,0.106 33.266,0 33,0 L15,0 C14.734,0 14.48,0.106 14.292,0.294 L0.292,14.294 C0.106,14.48 0,14.734 0,15 L0,33 C0,33.238 0.084,33.47 0.242,33.65 L12.242,47.65 C12.43,47.872 12.708,48 13,48 L33,48 C33.266,48 33.52,47.894 33.708,47.708 L47.708,33.708 C47.894,33.52 48,33.266 48,33 L48,15 C48,14.734 47.894,14.48 47.708,14.294 L47.708,14.294 Z" id="path-1"></path>
        <path id="path-2" d="M37,25 C37,25.552 37.448,26 38,26 L42,26 C42.552,26 43,25.552 43,25 C43,24.448 42.552,24 42,24 L38,24 C37.448,24 37,24.448 37,25"></path>
        <path id="path-3" d="M34.707,33.293 C34.317,32.903 33.683,32.903 33.293,33.293 C32.903,33.683 32.903,34.317 33.293,34.707 L36.293,37.707 C36.489,37.903 36.745,38.001 36.999,38.001 C37.255,38.001 37.511,37.903 37.707,37.707 C38.097,37.317 38.097,36.683 37.707,36.293 L34.707,33.293 Z"></path>
        <path id="path-4" d="M23,37 C22.448,37 22,37.448 22,38 L22,42 C22,42.552 22.448,43 23,43 C23.552,43 24,42.552 24,42 L24,38 C24,37.448 23.552,37 23,37"></path>
        <path id="path-5" d="M13.293,33.293 L10.293,36.293 C9.903,36.683 9.903,37.317 10.293,37.707 C10.489,37.903 10.745,38.001 11.001,38.001 C11.255,38.001 11.511,37.903 11.707,37.707 L14.707,34.707 C15.097,34.317 15.097,33.683 14.707,33.293 C14.317,32.903 13.683,32.903 13.293,33.293"></path>
        <path id="path-6" d="M11,25 C11,24.448 10.552,24 10,24 L6,24 C5.448,24 5,24.448 5,25 C5,25.552 5.448,26 6,26 L10,26 C10.552,26 11,25.552 11,25"></path>
        <path id="path-7" d="M11.707,10.293 C11.317,9.903 10.683,9.903 10.293,10.293 C9.903,10.683 9.903,11.317 10.293,11.707 L13.293,14.707 C13.489,14.903 13.745,15.001 13.999,15.001 C14.255,15.001 14.511,14.903 14.707,14.707 C15.097,14.317 15.097,13.683 14.707,13.293 L11.707,10.293 Z"></path>
        <path id="path-8" d="M34,15 C34.256,15 34.512,14.902 34.708,14.708 L37.708,11.708 C38.098,11.316 38.098,10.684 37.708,10.292 C37.316,9.902 36.684,9.902 36.292,10.292 L33.292,13.292 C32.902,13.684 32.902,14.316 33.292,14.708 C33.488,14.902 33.744,15 34,15"></path>
        <path id="path-9" d="M24,24 L24,8 C24,7.448 23.552,7 23,7 C22.448,7 22,7.448 22,8 L22,25 C22,25.552 22.448,26 23,26 L32,26 C32.552,26 33,25.552 33,25 C33,24.448 32.552,24 32,24 L24,24 Z"></path>
    </defs>
    <g id="Page-1" stroke="none" stroke-width="1" fill="none" fill-rule="evenodd" sketch:type="MSPage">
        <g id="tabbar-icons" sketch:type="MSArtboardGroup" transform="translate(-124.000000, 0.000000)">
            <g id="today" sketch:type="MSLayerGroup" transform="translate(124.000000, 0.000000)">
                <g id="Icon" transform="translate(7.000000, 1.000000)">
                    <g id="Fill-328">
                        <use fill="#FFFFFF" fill-rule="evenodd" sketch:type="MSShapeGroup" xlink:href="#path-1"></use>
                        <use fill="none" xlink:href="#path-1"></use>
                    </g>
                    <g id="Fill-329">
                        <use fill="#FFFFFF" fill-rule="evenodd" sketch:type="MSShapeGroup" xlink:href="#path-2"></use>
                        <use fill="none" xlink:href="#path-2"></use>
                    </g>
                    <g id="Fill-330">
                        <use fill="#FFFFFF" fill-rule="evenodd" sketch:type="MSShapeGroup" xlink:href="#path-3"></use>
                        <use fill="none" xlink:href="#path-3"></use>
                    </g>
                    <g id="Fill-331">
                        <use fill="#FFFFFF" fill-rule="evenodd" sketch:type="MSShapeGroup" xlink:href="#path-4"></use>
                        <use fill="none" xlink:href="#path-4"></use>
                    </g>
                    <g id="Fill-332">
                        <use fill="#FFFFFF" fill-rule="evenodd" sketch:type="MSShapeGroup" xlink:href="#path-5"></use>
                        <use fill="none" xlink:href="#path-5"></use>
                    </g>
                    <g id="Fill-333">
                        <use fill="#FFFFFF" fill-rule="evenodd" sketch:type="MSShapeGroup" xlink:href="#path-6"></use>
                        <use fill="none" xlink:href="#path-6"></use>
                    </g>
                    <g id="Fill-334">
                        <use fill="#FFFFFF" fill-rule="evenodd" sketch:type="MSShapeGroup" xlink:href="#path-7"></use>
                        <use fill="none" xlink:href="#path-7"></use>
                    </g>
                    <g id="Fill-335">
                        <use fill="#FFFFFF" fill-rule="evenodd" sketch:type="MSShapeGroup" xlink:href="#path-8"></use>
                        <use fill="none" xlink:href="#path-8"></use>
                    </g>
                    <g id="Fill-336">
                        <use fill="#FFFFFF" fill-rule="evenodd" sketch:type="MSShapeGroup" xlink:href="#path-9"></use>
                        <use fill="none" xlink:href="#path-9"></use>
                    </g>
                </g>
            </g>
        </g>
    </g>
</svg>