<?xml version="1.0" encoding="UTF-8" standalone="no"?>
<svg width="62px" height="50px" viewBox="0 0 62 50" version="1.1" xmlns="http://www.w3.org/2000/svg" xmlns:xlink="http://www.w3.org/1999/xlink" xmlns:sketch="http://www.bohemiancoding.com/sketch/ns">
    <!-- Generator: Sketch 3.5.1 (25234) - http://www.bohemiancoding.com/sketch -->
    <title>_assets/resources/icons/tabbar/training</title>
    <desc>Created with Sketch.</desc>
    <defs></defs>
    <g id="Page-1" stroke="none" stroke-width="1" fill="none" fill-rule="evenodd" sketch:type="MSPage">
        <g id="tabbar-icons" sketch:type="MSArtboardGroup" fill="#FFFFFF">
            <g id="training" sketch:type="MSLayerGroup">
                <path d="M0,24 L6,24 L6,17 L10,16 L10,11 L16,9 L16,24 L46,24 L46,9 L52,11 L52,16 L56,17 L56,24 L62,24 L62,26 L56,26 L56,33 L52,34 L52,39 L46,41 L46,26 L16,26 L16,41 L10,39 L10,34 L6,33 L6,26 L0,26 L0,24 Z M8,18.5 L10,18 L10,32 L8,31.5 L8,18.5 Z M12,13 L14,12.5 L14,37.5 L12,37 L12,13 Z M48,12.5 L50,13 L50,37 L48,37.5 L48,12.5 Z M52,18 L54,18.5 L54,31.5 L52,32 L52,18 Z" id="Path-170" sketch:type="MSShapeGroup"></path>
            </g>
        </g>
    </g>
</svg>