<?xml version="1.0" encoding="UTF-8" standalone="no"?>
<svg width="32px" height="36px" viewBox="0 0 32 36" version="1.1" xmlns="http://www.w3.org/2000/svg" xmlns:xlink="http://www.w3.org/1999/xlink" xmlns:sketch="http://www.bohemiancoding.com/sketch/ns">
    <!-- Generator: Sketch 3.5.1 (25234) - http://www.bohemiancoding.com/sketch -->
    <title>_assets/resources/icons/muscles/abs_large</title>
    <desc>Created with Sketch.</desc>
    <defs></defs>
    <g id="exports" stroke="none" stroke-width="1" fill="none" fill-rule="evenodd" sketch:type="MSPage">
        <g id="muscle-groups" sketch:type="MSArtboardGroup" transform="translate(-20.000000, -20.000000)" fill="#FFFFFF">
            <g id="large" sketch:type="MSLayerGroup" transform="translate(20.000000, 20.000000)">
                <g id="abs" sketch:type="MSShapeGroup">
                    <path d="M16.8236374,27.9970301 C16.8236374,27.4463856 17.2711268,27 17.8221397,27 L28.825135,27 C29.3765927,27 29.7161087,27.4301147 29.5823906,27.9649869 L28.0648841,34.0350131 C27.9316472,34.5679606 27.3788004,35 26.8280599,35 L17.8192149,35 C17.2693726,35 16.8236374,34.5469637 16.8236374,34.0029699 L16.8236374,27.9970301 Z M2.06488411,27.9649869 C1.93164722,27.4320394 2.2711268,27 2.82213971,27 L13.825135,27 C14.3765927,27 14.8236374,27.4530363 14.8236374,27.9970301 L14.8236374,34.0029699 C14.8236374,34.5536144 14.3788004,35 13.8280599,35 L4.81921488,35 C4.26937261,35 3.71610869,34.5698853 3.58239065,34.0350131 L2.06488411,27.9649869 Z M16.8236374,15.9975446 C16.8236374,15.446616 17.2735861,15 17.8304829,15 L29.8167919,15 C30.3728573,15 30.7271732,15.4340887 30.6057951,15.9802904 L29.0414797,23.0197096 C28.9211687,23.561109 28.3678764,24 27.8211641,24 L17.8261107,24 C17.27246,24 16.8236374,23.5536886 16.8236374,23.0024554 L16.8236374,15.9975446 Z M1.04147969,15.9802904 C0.921168702,15.438891 1.27358614,15 1.83048285,15 L13.8167919,15 C14.3728573,15 14.8236374,15.4463114 14.8236374,15.9975446 L14.8236374,23.0024554 C14.8236374,23.553384 14.3678764,24 13.8211641,24 L3.82611067,24 C3.27245996,24 2.72717322,23.5659113 2.60579507,23.0197096 L1.04147969,15.9802904 Z M16.8236374,2.99539757 C16.8236374,2.44565467 17.2725576,2 17.8311214,2 L30.8161534,2 C31.3725714,2 31.7376999,2.4296875 31.6282275,2.97704962 L30.0190473,11.0229504 C29.9111254,11.56256 29.376148,12 28.825135,12 L17.8221397,12 C17.2706821,12 16.8236374,11.5443356 16.8236374,11.0046024 L16.8236374,2.99539757 Z M0.0190473014,2.97704962 C-0.0888746195,2.43744001 0.272557583,2 0.831121352,2 L13.8161534,2 C14.3725714,2 14.8236374,2.4556644 14.8236374,2.99539757 L14.8236374,11.0046024 C14.8236374,11.5543453 14.376148,12 13.825135,12 L2.82213971,12 C2.2706821,12 1.73769988,11.5703125 1.62822745,11.0229504 L0.0190473014,2.97704962 Z" id="Icon"></path>
                </g>
            </g>
        </g>
    </g>
</svg>