<?xml version="1.0" encoding="UTF-8" standalone="no"?>
<svg width="19px" height="24px" viewBox="0 0 19 24" version="1.1" xmlns="http://www.w3.org/2000/svg" xmlns:xlink="http://www.w3.org/1999/xlink" xmlns:sketch="http://www.bohemiancoding.com/sketch/ns">
    <!-- Generator: Sketch 3.5.1 (25234) - http://www.bohemiancoding.com/sketch -->
    <title>_assets/resources/icons/muscles/abs_small</title>
    <desc>Created with Sketch.</desc>
    <defs></defs>
    <g id="exports" stroke="none" stroke-width="1" fill="none" fill-rule="evenodd" sketch:type="MSPage">
        <g id="muscle-groups" sketch:type="MSArtboardGroup" transform="translate(-178.000000, -26.000000)" fill="#FFAB1A">
            <g id="small" sketch:type="MSLayerGroup" transform="translate(178.000000, 26.000000)">
                <g id="abs" sketch:type="MSShapeGroup">
                    <path d="M10.100256,17.7655791 C10.100256,17.4264409 10.3780292,17.1515152 10.7126772,17.1515152 L17.292528,17.1515152 C17.6307589,17.1515152 17.8403932,17.4121908 17.7577171,17.7460346 L16.8514593,21.4054806 C16.7701452,21.7338246 16.4371644,22 16.0947787,22 L10.7097045,22 C10.3731154,22 10.100256,21.7254325 10.100256,21.385936 L10.100256,17.7655791 Z M1.24207288,17.7460346 C1.16075884,17.4176906 1.37261395,17.1515152 1.70726197,17.1515152 L8.2871128,17.1515152 C8.62534368,17.1515152 8.89953399,17.4260826 8.89953399,17.7655791 L8.89953399,21.385936 C8.89953399,21.7250742 8.63247121,22 8.29008547,22 L2.90501133,22 C2.56842221,22 2.23100679,21.7393244 2.14833073,21.4054806 L1.24207288,17.7460346 Z M10.100256,10.4833604 C10.100256,10.1494642 10.3799072,9.87878788 10.7047268,9.87878788 L17.9008395,9.87878788 C18.2346794,9.87878788 18.4473969,10.1418719 18.3768119,10.4625198 L17.4330865,14.7496014 C17.3621188,15.0719877 17.0309671,15.3333333 16.6903509,15.3333333 L10.7144933,15.3333333 C10.3752594,15.3333333 10.100256,15.0702493 10.100256,14.7287608 L10.100256,10.4833604 Z M0.622978063,10.4625198 C0.552010416,10.1401336 0.774130967,9.87878788 1.09895054,9.87878788 L8.29506321,9.87878788 C8.6289032,9.87878788 8.89953399,10.1418719 8.89953399,10.4833604 L8.89953399,14.7287608 C8.89953399,15.062657 8.62591288,15.3333333 8.28529668,15.3333333 L2.30943911,15.3333333 C1.97020521,15.3333333 1.63728848,15.0702493 1.56670351,14.7496014 L0.622978063,10.4625198 Z M10.100256,2.60327125 C10.100256,2.27009374 10.3796452,2 10.7051101,2 L18.5008171,2 C18.8348688,2 19.0540777,2.26041667 18.9861517,2.60327125 L18.0244688,7.45733481 C17.95846,7.79051232 17.6271761,8.06060606 17.292528,8.06060606 L10.7126772,8.06060606 C10.3744463,8.06060606 10.100256,7.78444582 10.100256,7.45733481 L10.100256,2.60327125 Z M0.0136383358,2.60327125 C-0.0523705049,2.27009374 0.173507939,2 0.498972858,2 L8.29467988,2 C8.62873158,2 8.89953399,2.27616024 8.89953399,2.60327125 L8.89953399,7.45733481 C8.89953399,7.79051232 8.62176082,8.06060606 8.2871128,8.06060606 L1.70726197,8.06060606 C1.36903109,8.06060606 1.04324726,7.80018939 0.975321209,7.45733481 L0.0136383358,2.60327125 Z" id="Icon"></path>
                </g>
            </g>
        </g>
    </g>
</svg>