<?xml version="1.0" encoding="UTF-8" standalone="no"?>
<svg width="64px" height="64px" viewBox="0 0 64 64" version="1.1" xmlns="http://www.w3.org/2000/svg" xmlns:xlink="http://www.w3.org/1999/xlink" xmlns:sketch="http://www.bohemiancoding.com/sketch/ns">
    <!-- Generator: Sketch 3.5.1 (25234) - http://www.bohemiancoding.com/sketch -->
    <title>_assets/resources/icons/info/exercise</title>
    <desc>Created with Sketch.</desc>
    <defs></defs>
    <g id="exports" stroke="none" stroke-width="1" fill="none" fill-rule="evenodd" sketch:type="MSPage">
        <g id="info" sketch:type="MSArtboardGroup" transform="translate(-272.000000, -20.000000)" fill="#FFFFFF">
            <g id="Group-4" sketch:type="MSLayerGroup" transform="translate(272.000000, 20.000000)">
                <path d="M5,31 L9,31 L9,27 L13,26 L13,21 L19,19 L19,31 L45,31 L45,19 L51,21 L51,26 L55,27 L55,31 L59,31 L59,33 L55,33 L55,37 L51,38 L51,43 L45,45 L45,33 L19,33 L19,45 L13,43 L13,38 L9,37 L9,33 L5,33 L5,31 Z M51,28.5 L53,29 L53,35 L51,35.5 L51,28.5 Z M47,22.5 L49,23 L49,41 L47,41.5 L47,22.5 Z M15,23 L17,22.5 L17,41.5 L15,41 L15,23 Z M11,29 L13,28.5 L13,35.5 L11,35 L11,29 Z" id="icon" sketch:type="MSShapeGroup"></path>
            </g>
        </g>
    </g>
</svg>