<?xml version="1.0" encoding="UTF-8" standalone="no"?>
<svg width="64px" height="64px" viewBox="0 0 64 64" version="1.1" xmlns="http://www.w3.org/2000/svg" xmlns:xlink="http://www.w3.org/1999/xlink" xmlns:sketch="http://www.bohemiancoding.com/sketch/ns">
    <!-- Generator: Sketch 3.5.1 (25234) - http://www.bohemiancoding.com/sketch -->
    <title>_assets/resources/icons/info/negative</title>
    <desc>Created with Sketch.</desc>
    <defs>
        <path d="M40.2896687,50.208 L31.0456687,53.906 L19.9316687,48.348 L17.1216687,24 L18.2376687,24 L21.0356687,34.264 C21.1656687,34.746 21.6236687,35.054 22.1336687,34.992 C22.6296687,34.926 22.9996687,34.502 22.9996687,34 L22.9996687,16 L24.1476687,16 L27.0116687,34.158 C27.0936687,34.664 27.5396687,35.008 28.0596687,35 C28.5736687,34.97 28.9796687,34.554 28.9996687,34.042 L29.9616687,10 L32.0396687,10 L32.9996687,34.042 C33.0216687,34.554 33.4276687,34.97 33.9416687,35 C34.4436687,35.006 34.9076687,34.664 34.9896687,34.158 L37.8536687,16 L38.9996687,16 L38.9996687,41 C38.9996687,41.394 39.2296687,41.75 39.5856687,41.912 C39.9436687,42.074 40.3636687,42.01 40.6596687,41.754 L47.6836687,35.606 L47.8756687,35.986 L40.2896687,50.208 Z M49.8956687,35.554 L48.8956687,33.554 C48.7556687,33.276 48.4976687,33.08 48.1936687,33.02 C47.8896687,32.956 47.5756687,33.044 47.3416687,33.248 L40.9996687,38.796 L40.9996687,15 C40.9996687,14.448 40.5536687,14 39.9996687,14 L36.9996687,14 C36.5076687,14 36.0896687,14.36 36.0116687,14.844 L34.5936687,23.828 L33.9996687,8.96 C33.9796687,8.424 33.5376687,8 32.9996687,8 L28.9996687,8 C28.4636687,8 28.0216687,8.424 27.9996687,8.96 L27.4076687,23.828 L25.9896687,14.844 C25.9116687,14.36 25.4936687,14 24.9996687,14 L21.9996687,14 C21.4476687,14 20.9996687,14.448 20.9996687,15 L20.9996687,26.534 L19.9656687,22.738 C19.8456687,22.302 19.4516687,22 18.9996687,22 L15.9996687,22 C15.7156687,22 15.4436687,22.124 15.2536687,22.336 C15.0656687,22.548 14.9756687,22.832 15.0056687,23.116 L18.0056687,49.116 C18.0456687,49.452 18.2496687,49.744 18.5536687,49.896 L30.5536687,55.896 C30.6936687,55.966 30.8456687,56 30.9996687,56 C31.1256687,56 31.2516687,55.978 31.3716687,55.93 L41.3716687,51.93 C41.5896687,51.842 41.7716687,51.68 41.8836687,51.472 L49.8836687,36.472 C50.0356687,36.186 50.0396687,35.844 49.8956687,35.554 L49.8956687,35.554 Z" id="path-1"></path>
    </defs>
    <g id="exports" stroke="none" stroke-width="1" fill="none" fill-rule="evenodd" sketch:type="MSPage">
        <g id="info" sketch:type="MSArtboardGroup" transform="translate(-104.000000, -20.000000)">
            <g id="Group-2" sketch:type="MSLayerGroup" transform="translate(104.000000, 20.000000)">
                <g id="Icon">
                    <use fill="none" sketch:type="MSShapeGroup" xlink:href="#path-1"></use>
                    <use fill="#E92734" fill-rule="evenodd" xlink:href="#path-1"></use>
                </g>
            </g>
        </g>
    </g>
</svg>