<?xml version="1.0" encoding="UTF-8" standalone="no"?>
<svg width="64px" height="64px" viewBox="0 0 64 64" version="1.1" xmlns="http://www.w3.org/2000/svg" xmlns:xlink="http://www.w3.org/1999/xlink" xmlns:sketch="http://www.bohemiancoding.com/sketch/ns">
    <!-- Generator: Sketch 3.5.1 (25234) - http://www.bohemiancoding.com/sketch -->
    <title>_assets/resources/icons/info/positive</title>
    <desc>Created with Sketch.</desc>
    <defs></defs>
    <g id="exports" stroke="none" stroke-width="1" fill="none" fill-rule="evenodd" sketch:type="MSPage">
        <g id="info" sketch:type="MSArtboardGroup" transform="translate(-20.000000, -20.000000)" fill="#00BD53">
            <g id="Group" sketch:type="MSLayerGroup" transform="translate(20.000000, 20.000000)">
                <path d="M9,26 L22,26 L30,17 L30,8 L33,6 L36,6 L38,8 L40,13 L39,22 L53,23 L55,25 L55,29 L53,30 L54,31 L54,35 L52,37 L53,39 L51,41 L52,45 L50,49 L22,49 L9,50 L9,26 Z M24,26.5 L32,18 L32,10 L33.5,8 L35.5,8 L38,13.5 L37,24 L52.5,25 L53,28 L50.5,29.5 L52,31.5 L52,34.5 L50,36 L50.5,38.5 L49,40 L50,44 L48.5,47 L24,47 L24,45.5 L24,26.5 Z M11,28 L22,28 L22,47 L11,47.5 L11,28 Z" id="Path-234" sketch:type="MSShapeGroup"></path>
            </g>
        </g>
    </g>
</svg>