<?xml version="1.0" encoding="UTF-8" standalone="no"?>
<svg width="64px" height="64px" viewBox="0 0 64 64" version="1.1" xmlns="http://www.w3.org/2000/svg" xmlns:xlink="http://www.w3.org/1999/xlink" xmlns:sketch="http://www.bohemiancoding.com/sketch/ns">
    <!-- Generator: Sketch 3.5.1 (25234) - http://www.bohemiancoding.com/sketch -->
    <title>_assets/resources/icons/info/positive</title>
    <desc>Created with Sketch.</desc>
    <defs></defs>
    <g id="exports" stroke="none" stroke-width="1" fill="none" fill-rule="evenodd" sketch:type="MSPage">
        <g id="info" sketch:type="MSArtboardGroup" transform="translate(-20.000000, -20.000000)" fill="#00BD53">
            <g id="Group" sketch:type="MSLayerGroup" transform="translate(20.000000, 20.000000)">
                <path d="M9,30 L22,30 L30,21 L30,12 L33,10 L36,10 L38,12 L40,17 L39,26 L53,27 L55,29 L55,33 L53,34 L54,35 L54,39 L52,41 L53,43 L51,45 L52,49 L50,53 L22,53 L9,54 L9,30 Z M24,30.5 L32,22 L32,14 L33.5,12 L35.5,12 L38,17.5 L37,28 L52.5,29 L53,32 L50.5,33.5 L52,35.5 L52,38.5 L50,40 L50.5,42.5 L49,44 L50,48 L48.5,51 L24,51 L24,49.5 L24,30.5 Z M11,32 L22,32 L22,51 L11,51.5 L11,32 Z" id="Path-234" sketch:type="MSShapeGroup"></path>
            </g>
        </g>
    </g>
</svg>