<?xml version="1.0" encoding="UTF-8" standalone="no"?>
<svg width="64px" height="64px" viewBox="0 0 64 64" version="1.1" xmlns="http://www.w3.org/2000/svg" xmlns:xlink="http://www.w3.org/1999/xlink" xmlns:sketch="http://www.bohemiancoding.com/sketch/ns">
    <!-- Generator: Sketch 3.5.1 (25234) - http://www.bohemiancoding.com/sketch -->
    <title>_assets/resources/icons/info/program</title>
    <desc>Created with Sketch.</desc>
    <defs></defs>
    <g id="exports" stroke="none" stroke-width="1" fill="none" fill-rule="evenodd" sketch:type="MSPage">
        <g id="info" sketch:type="MSArtboardGroup" transform="translate(-356.000000, -20.000000)" fill="#FFFFFF">
            <g id="Group-5" sketch:type="MSLayerGroup" transform="translate(356.000000, 20.000000)">
                <path d="M36.586,44 L30,50.586 L30,44 L36.586,44 Z M10,14 L38,14 L38,42 L29,42 C28.448,42 28,42.448 28,43 L28,52 L10,52 L10,14 Z M39,12 L9,12 C8.448,12 8,12.448 8,13 L8,53 C8,53.552 8.448,54 9,54 L29,54 C29.134,54 29.264,53.972 29.384,53.922 C29.506,53.872 29.616,53.798 29.708,53.706 L39.706,43.708 C39.798,43.616 39.872,43.506 39.922,43.384 C39.972,43.264 40,43.134 40,43 L40,13 C40,12.448 39.552,12 39,12 Z M22.2324,18.3594 L17.9344,23.5194 L15.7064,21.2934 C15.3164,20.9014 14.6844,20.9014 14.2924,21.2934 C13.9024,21.6834 13.9024,22.3174 14.2924,22.7074 L17.2924,25.7074 C17.4804,25.8954 17.7364,25.9994 18.0004,25.9994 L18.0444,25.9994 C18.3264,25.9854 18.5884,25.8574 18.7684,25.6414 L23.7684,19.6414 C24.1204,19.2154 24.0644,18.5854 23.6404,18.2314 C23.2184,17.8814 22.5884,17.9354 22.2324,18.3594 Z M22.2324,29.3594 L17.9344,34.5194 L15.7064,32.2934 C15.3164,31.9014 14.6844,31.9014 14.2924,32.2934 C13.9024,32.6834 13.9024,33.3174 14.2924,33.7074 L17.2924,36.7074 C17.4804,36.8954 17.7364,36.9994 18.0004,36.9994 L18.0444,36.9994 C18.3264,36.9854 18.5884,36.8574 18.7684,36.6414 L23.7684,30.6414 C24.1204,30.2154 24.0644,29.5854 23.6404,29.2314 C23.2184,28.8814 22.5884,28.9354 22.2324,29.3594 Z M25,24 L33,24 C33.552,24 34,23.552 34,23 C34,22.448 33.552,22 33,22 L25,22 C24.448,22 24,22.448 24,23 C24,23.552 24.448,24 25,24 Z M33,36 C33.552,36 34,35.552 34,35 C34,34.448 33.552,34 33,34 L25,34 C24.448,34 24,34.448 24,35 C24,35.552 24.448,36 25,36 L33,36 Z M55.708,30.2936 L54.06,28.6456 L55.99,15.1416 C56.032,14.8536 55.946,14.5636 55.756,14.3456 C55.566,14.1256 55.29,13.9996 55,13.9996 L50,13.9996 L50,12.9996 C50,12.4476 49.552,11.9996 49,11.9996 L47,11.9996 L47,10.9996 C47,10.4476 46.552,9.9996 46,9.9996 C45.448,9.9996 45,10.4476 45,10.9996 L45,11.9996 L43,11.9996 C42.448,11.9996 42,12.4476 42,12.9996 L42,46.9996 C42,47.0116 42.006,47.0196 42.006,47.0316 C42.008,47.0956 42.03,47.1576 42.044,47.2216 C42.06,47.2896 42.07,47.3576 42.098,47.4176 C42.102,47.4276 42.1,47.4376 42.106,47.4476 L45.106,53.4476 C45.276,53.7856 45.622,53.9996 46,53.9996 C46.378,53.9996 46.724,53.7856 46.894,53.4476 L49.894,47.4476 C49.9,47.4376 49.898,47.4276 49.902,47.4176 C49.93,47.3576 49.94,47.2896 49.956,47.2216 C49.97,47.1576 49.992,47.0956 49.994,47.0316 C49.994,47.0196 50,47.0116 50,46.9996 L50,15.9996 L53.848,15.9996 L52.01,28.8576 C51.964,29.1696 52.07,29.4836 52.292,29.7076 L54.292,31.7076 C54.488,31.9016 54.744,31.9996 55,31.9996 C55.256,31.9996 55.512,31.9016 55.708,31.7076 C56.098,31.3156 56.098,30.6836 55.708,30.2936 Z M46,50.7636 L44.618,47.9996 L47.382,47.9996 L46,50.7636 Z M44,23.9996 L48,23.9996 L48,45.9996 L44,45.9996 L44,23.9996 Z M48,21.9996 L44,21.9996 L44,13.9996 L48,13.9996 L48,21.9996 Z" id="Fill-28" sketch:type="MSShapeGroup"></path>
            </g>
        </g>
    </g>
</svg>