<?xml version="1.0" encoding="UTF-8" standalone="no"?>
<svg width="64px" height="64px" viewBox="0 0 64 64" version="1.1" xmlns="http://www.w3.org/2000/svg" xmlns:xlink="http://www.w3.org/1999/xlink" xmlns:sketch="http://www.bohemiancoding.com/sketch/ns">
    <!-- Generator: Sketch 3.5.1 (25234) - http://www.bohemiancoding.com/sketch -->
    <title>_assets/resources/icons/info/remark</title>
    <desc>Created with Sketch.</desc>
    <defs></defs>
    <g id="exports" stroke="none" stroke-width="1" fill="none" fill-rule="evenodd" sketch:type="MSPage">
        <g id="info" sketch:type="MSArtboardGroup" transform="translate(-188.000000, -20.000000)" fill="#B151CA">
            <g id="Group-3" sketch:type="MSLayerGroup" transform="translate(188.000000, 20.000000)">
                <path d="M32,43 L28,45 L28,51 L32,53 L36,51 L36,45 L32,43 Z M26,15 L28,11 L36,11 L38,15 L36,37 L32,39 L28,37 L26,15 Z M30,46.5 L32,45 L34,46.5 L34,49.5 L32,51 L30,49.5 L30,46.5 Z M28,15.5 L29.5,13 L34.5,13 L36,15.5 L34,35 L32,37 L30,35 L28,15.5 Z" id="Path-1377" sketch:type="MSShapeGroup"></path>
            </g>
        </g>
    </g>
</svg>