<?xml version="1.0" encoding="UTF-8" standalone="no"?>
<svg width="72px" height="72px" viewBox="0 0 72 72" version="1.1" xmlns="http://www.w3.org/2000/svg" xmlns:xlink="http://www.w3.org/1999/xlink" xmlns:sketch="http://www.bohemiancoding.com/sketch/ns">
    <!-- Generator: Sketch 3.5.1 (25234) - http://www.bohemiancoding.com/sketch -->
    <title>_assets/resources/icons/tabs/diet</title>
    <desc>Created with Sketch.</desc>
    <defs></defs>
    <g id="exports" stroke="none" stroke-width="1" fill="none" fill-rule="evenodd" sketch:type="MSPage">
        <g id="tabs" sketch:type="MSArtboardGroup" transform="translate(-20.000000, -20.000000)" fill="#00BD53">
            <g id="diet" sketch:type="MSLayerGroup" transform="translate(20.000000, 20.000000)">
                <path d="M59.1897464,63.567456 L51.3871683,68.7661749 L37.1679372,61.6565593 C36.9579486,61.551565 36.726961,61.5005677 36.4989734,61.5005677 C36.2679859,61.5005677 36.0369984,61.551565 35.8270097,61.6565593 L21.6077786,68.7661749 L13.8052005,63.567456 L5.24066362,30.7342314 L24.5446198,19.700828 L35.8270097,25.3435229 C36.0369984,25.4485172 36.2679859,25.5025143 36.4989734,25.5025143 C36.6669643,25.5025143 36.8409549,25.4725159 37.0089458,25.4095193 C37.041944,25.4005198 37.059943,25.3735213 37.0899414,25.3615219 C37.11694,25.3495226 37.1439385,25.3555222 37.1679372,25.3435229 L48.4503271,19.700828 L67.7542833,30.7342314 L59.1897464,63.567456 Z M40.4647589,5.82357839 L50.24723,3.64869599 L46.0144588,12.1142382 L36.1059946,13.3471716 L40.4647589,5.82357839 Z M70.2411488,28.6973415 L49.2422843,16.6979904 C48.804308,16.4580033 48.2733367,16.4370045 47.8263609,16.6589925 L37.3329283,21.9087086 L35.3530353,16.4610032 L47.1813957,14.9910827 C47.6793688,14.9280861 48.1143453,14.6221026 48.3393331,14.172127 L54.3390087,2.1727758 C54.5969947,1.65380386 54.5339982,1.03583728 54.1800173,0.579861936 C53.8200368,0.123886592 53.2350684,-0.092101729 52.6710989,0.0368912959 L39.1718288,3.03672908 C38.7608511,3.12972406 38.40987,3.38471027 38.1998814,3.75069048 L33.6101296,11.6702622 L31.9062217,6.99051529 C31.6272368,6.21055746 30.7662834,5.8085792 29.9863255,6.09356379 C29.2063677,6.37554854 28.8043894,7.23650199 29.089374,8.01345998 L33.8021192,20.9787589 L25.168586,16.6589925 C24.7216102,16.4370045 24.1906389,16.4580033 23.7526626,16.6979904 L2.75679793,28.6973415 C2.16582988,29.0333234 1.87784546,29.723286 2.04883621,30.3802505 L11.0483496,64.8783851 C11.1383447,65.2353658 11.3633325,65.5413492 11.6663162,65.748338 L20.6658295,71.7480136 C21.118805,72.0449976 21.6887742,72.0779958 22.1687483,71.8410086 L36.4989734,64.6743961 L50.8261986,71.8410086 C51.0361873,71.9460029 51.2671748,72 51.4981623,72 C51.7861467,72 52.077131,71.9130047 52.3291174,71.7480136 L61.3286307,65.748338 C61.6316144,65.5413492 61.8566022,65.2353658 61.9465973,64.8783851 L70.9461107,30.3802505 C71.1201013,29.723286 70.829117,29.0333234 70.2411488,28.6973415 L70.2411488,28.6973415 Z M28.997879,47.3788314 L25.1190887,43.5000411 L28.997879,39.6212508 L28.997879,47.3788314 Z M31.0707669,34.6145216 C30.5187967,34.3865339 29.8678319,34.5125271 29.4358553,34.9415039 L21.9362608,42.4410984 C21.3512925,43.0260667 21.3512925,43.9740155 21.9362608,44.5619837 L29.4358553,52.0615781 C29.7238397,52.3465627 30.107819,52.4995545 30.4977979,52.4995545 C30.6897875,52.4995545 30.8877768,52.4605566 31.0707669,52.3855606 C31.6317366,52.1545731 31.9977168,51.6056028 31.9977168,50.9996356 L31.9977168,36.0004466 C31.9977168,35.3944794 31.6317366,34.8455091 31.0707669,34.6145216 L31.0707669,34.6145216 Z M43.9970679,39.6212508 L47.8758582,43.5000411 L43.9970679,47.3788314 L43.9970679,39.6212508 Z M41.92418,34.6145216 C41.3632103,34.8455091 40.9972301,35.3944794 40.9972301,36.0004466 L40.9972301,50.9996356 C40.9972301,51.6056028 41.3632103,52.1545731 41.92418,52.3855606 C42.1071701,52.4605566 42.3051594,52.4995545 42.497149,52.4995545 C42.8871279,52.4995545 43.2711072,52.3465627 43.5590916,52.0585783 L51.0586861,44.5589838 C51.6436544,43.9740155 51.6436544,43.0260667 51.0586861,42.4380985 L43.5590916,34.938504 C43.1301148,34.5125271 42.47915,34.3865339 41.92418,34.6145216 L41.92418,34.6145216 Z" id="Icon" sketch:type="MSShapeGroup"></path>
            </g>
        </g>
    </g>
</svg>