<?xml version="1.0" encoding="UTF-8" standalone="no"?>
<svg width="72px" height="72px" viewBox="0 0 72 72" version="1.1" xmlns="http://www.w3.org/2000/svg" xmlns:xlink="http://www.w3.org/1999/xlink" xmlns:sketch="http://www.bohemiancoding.com/sketch/ns">
    <!-- Generator: Sketch 3.5.1 (25234) - http://www.bohemiancoding.com/sketch -->
    <title>_assets/resources/icons/tabs/me</title>
    <desc>Created with Sketch.</desc>
    <defs></defs>
    <g id="exports" stroke="none" stroke-width="1" fill="none" fill-rule="evenodd" sketch:type="MSPage">
        <g id="tabs" sketch:type="MSArtboardGroup" transform="translate(-112.000000, -20.000000)" fill="#2196F3">
            <g id="me" sketch:type="MSLayerGroup" transform="translate(112.000000, 20.000000)">
                <path d="M69,45.699 L63,49.698 L63,36.003 L69,36.003 L69,45.699 Z M60,57.549 L36,68.844 L12,57.549 L12,52.503 L12,34.503 L12,27.003 L60,27.003 L60,34.503 L60,52.503 L60,57.549 Z M3,45.699 L3,36.003 L9,36.003 L9,49.698 L3,45.699 Z M12,14.454 L36,3.159 L60,14.454 L60,24.003 L12,24.003 L12,21.003 L19.5,21.003 C20.328,21.003 21,20.331 21,19.503 C21,18.672 20.328,18.003 19.5,18.003 L12,18.003 L12,14.454 Z M70.5,33.003 L63,33.003 L63,27.003 L70.5,27.003 C71.328,27.003 72,26.331 72,25.503 C72,24.672 71.328,24.003 70.5,24.003 L63,24.003 L63,13.503 C63,12.921 62.664,12.39 62.139,12.144 L36.639,0.144 C36.234,-0.048 35.766,-0.048 35.361,0.144 L9.861,12.144 C9.336,12.39 9,12.921 9,13.503 L9,33.003 L1.5,33.003 C0.672,33.003 0,33.672 0,34.503 L0,46.503 C0,47.004 0.249,47.472 0.669,47.751 L9,53.304 L9,58.503 C9,59.082 9.336,59.613 9.861,59.859 L35.361,71.859 C35.562,71.955 35.781,72.003 36,72.003 C36.219,72.003 36.438,71.955 36.639,71.859 L62.139,59.859 C62.664,59.613 63,59.082 63,58.503 L63,53.304 L71.331,47.751 C71.751,47.472 72,47.004 72,46.503 L72,34.503 C72,33.672 71.328,33.003 70.5,33.003 Z M45.9096,52.6233 L36.0006,56.8713 L26.0916,52.6233 C25.3356,52.2903 24.4476,52.6473 24.1206,53.4123 C23.7936,54.1713 24.1476,55.0533 24.9096,55.3803 L35.4096,59.8803 C35.5956,59.9613 35.7996,60.0003 36.0006,60.0003 C36.2016,60.0003 36.4026,59.9613 36.5916,59.8803 L47.0916,55.3803 C47.8506,55.0533 48.2046,54.1713 47.8776,53.4123 C47.5506,52.6473 46.6596,52.2903 45.9096,52.6233 Z M46.5,45.0018 C47.328,45.0018 48,44.3298 48,43.5018 L48,34.5018 C48,33.6738 47.328,33.0018 46.5,33.0018 C45.672,33.0018 45,33.6738 45,34.5018 L45,43.5018 C45,44.3298 45.672,45.0018 46.5,45.0018 Z M25.5,45.0018 C26.328,45.0018 27,44.3298 27,43.5018 L27,34.5018 C27,33.6738 26.328,33.0018 25.5,33.0018 C24.672,33.0018 24,33.6738 24,34.5018 L24,43.5018 C24,44.3298 24.672,45.0018 25.5,45.0018 Z" id="Icon" sketch:type="MSShapeGroup"></path>
            </g>
        </g>
    </g>
</svg>