<?xml version="1.0" encoding="UTF-8" standalone="no"?>
<svg width="72px" height="72px" viewBox="0 0 72 72" version="1.1" xmlns="http://www.w3.org/2000/svg" xmlns:xlink="http://www.w3.org/1999/xlink" xmlns:sketch="http://www.bohemiancoding.com/sketch/ns">
    <!-- Generator: Sketch 3.5.1 (25234) - http://www.bohemiancoding.com/sketch -->
    <title>_assets/resources/icons/tabs/more</title>
    <desc>Created with Sketch.</desc>
    <defs></defs>
    <g id="exports" stroke="none" stroke-width="1" fill="none" fill-rule="evenodd" sketch:type="MSPage">
        <g id="tabs" sketch:type="MSArtboardGroup" transform="translate(-204.000000, -20.000000)" fill="#C3AF91">
            <g id="more" sketch:type="MSLayerGroup" transform="translate(204.000000, 20.000000)">
                <path d="M39,48 L48,39 L60,39 L69,48 L69,60 L60,69 L48,69 L39,60 L39,48 Z M42,49 L49,42 L59,42 L66,49 L66,59 L59,66 L49,66 L42,59 L42,49 Z M3,48 L12,39 L24,39 L33,48 L33,60 L24,69 L12,69 L3,60 L3,48 Z M6,49 L13,42 L23,42 L30,49 L30,59 L23,66 L13,66 L6,59 L6,49 Z M39,12 L48,3 L60,3 L69,12 L69,24 L60,33 L48,33 L39,24 L39,12 Z M42,13 L49,6 L59,6 L66,13 L66,23 L59,30 L49,30 L42,23 L42,13 Z M3,12 L12,3 L24,3 L33,12 L33,24 L24,33 L12,33 L3,24 L3,12 Z M6,13 L13,6 L23,6 L30,13 L30,23 L23,30 L13,30 L6,23 L6,13 Z" id="Path-233" sketch:type="MSShapeGroup"></path>
            </g>
        </g>
    </g>
</svg>