<?xml version="1.0" encoding="UTF-8" standalone="no"?>
<svg width="32px" height="32px" viewBox="0 0 32 32" version="1.1" xmlns="http://www.w3.org/2000/svg" xmlns:xlink="http://www.w3.org/1999/xlink" xmlns:sketch="http://www.bohemiancoding.com/sketch/ns">
    <!-- Generator: Sketch 3.5.1 (25234) - http://www.bohemiancoding.com/sketch -->
    <title>_assets/resources/icons/social/facebook</title>
    <desc>Created with Sketch.</desc>
    <defs></defs>
    <g id="exports" stroke="none" stroke-width="1" fill="none" fill-rule="evenodd" sketch:type="MSPage">
        <g id="misc" sketch:type="MSArtboardGroup" transform="translate(-20.000000, -20.000000)" fill="#FFFFFF">
            <g id="_facebook-icon" sketch:type="MSLayerGroup" transform="translate(20.000000, 20.000000)">
                <path d="M30,0 L2,0 C0.9,0 0,0.9 0,2 L0,30 C0,31.1 0.9,32 2,32 L30,32 C31.1,32 32,31.1 32,30 L32,2 C32,0.9 31.1,0 30,0 L30,0 Z M23,12 C21,12 20,13.2 20,18 L25,18 L25,22 L20,22 L20,32 L16,32 L16,22 L11,22 L11,18 L16,18 C16,14.3256 15.8,8 23,8 L26,8 L26,12 L23,12 Z" id="Shape" sketch:type="MSShapeGroup"></path>
            </g>
        </g>
    </g>
</svg>