<?xml version="1.0" encoding="UTF-8" standalone="no"?>
<svg width="48px" height="48px" viewBox="0 0 48 48" version="1.1" xmlns="http://www.w3.org/2000/svg" xmlns:xlink="http://www.w3.org/1999/xlink" xmlns:sketch="http://www.bohemiancoding.com/sketch/ns">
    <!-- Generator: Sketch 3.5.1 (25234) - http://www.bohemiancoding.com/sketch -->
    <title>_assets/resources/icons/navbar/calendar</title>
    <desc>Created with Sketch.</desc>
    <defs></defs>
    <g id="exports" stroke="none" stroke-width="1" fill="none" fill-rule="evenodd" sketch:type="MSPage">
        <g id="navbar-icons" sketch:type="MSArtboardGroup" transform="translate(-300.000000, -10.000000)" fill="#FFFFFF">
            <g id="calendar-icon" sketch:type="MSLayerGroup" transform="translate(300.000000, 10.000000)">
                <path d="M46,46 L2,46 L2,14 L46,14 L46,46 Z M10,4 L10,7 C10,7.552 10.448,8 11,8 C11.552,8 12,7.552 12,7 L12,4 L22,4 L22,7 C22,7.552 22.448,8 23,8 C23.552,8 24,7.552 24,7 L24,4 L34,4 L34,7 C34,7.552 34.448,8 35,8 C35.552,8 36,7.552 36,7 L36,4 L46,4 L46,12 L2,12 L2,4 L10,4 Z M47,2 L36,2 L36,1 C36,0.448 35.552,0 35,0 C34.448,0 34,0.448 34,1 L34,2 L24,2 L24,1 C24,0.448 23.552,0 23,0 C22.448,0 22,0.448 22,1 L22,2 L12,2 L12,1 C12,0.448 11.552,0 11,0 C10.448,0 10,0.448 10,1 L10,2 L1,2 C0.448,2 0,2.448 0,3 L0,13 L0,47 C0,47.552 0.448,48 1,48 L47,48 C47.552,48 48,47.552 48,47 L48,13 L48,3 C48,2.448 47.552,2 47,2 Z M6,20 L10,20 L10,24 L6,24 L6,20 Z M14,20 L18,20 L18,24 L14,24 L14,20 Z M22,20 L26,20 L26,24 L22,24 L22,20 Z M30,20 L34,20 L34,24 L30,24 L30,20 Z M38,20 L42,20 L42,24 L38,24 L38,20 Z M6,28 L10,28 L10,32 L6,32 L6,28 Z M14,28 L18,28 L18,32 L14,32 L14,28 Z M22,28 L26,28 L26,32 L22,32 L22,28 Z" id="Fill-62" sketch:type="MSShapeGroup"></path>
            </g>
        </g>
    </g>
</svg>