<?xml version="1.0" encoding="UTF-8" standalone="no"?>
<svg width="48px" height="48px" viewBox="0 0 48 48" version="1.1" xmlns="http://www.w3.org/2000/svg" xmlns:xlink="http://www.w3.org/1999/xlink" xmlns:sketch="http://www.bohemiancoding.com/sketch/ns">
    <!-- Generator: Sketch 3.5.1 (25234) - http://www.bohemiancoding.com/sketch -->
    <title>_assets/resources/icons/navbar/filter</title>
    <desc>Created with Sketch.</desc>
    <defs></defs>
    <g id="exports" stroke="none" stroke-width="1" fill="none" fill-rule="evenodd" sketch:type="MSPage">
        <g id="navbar-icons" sketch:type="MSArtboardGroup" transform="translate(-242.000000, -10.000000)" fill="#FFFFFF">
            <g id="filter-icon" sketch:type="MSLayerGroup" transform="translate(242.000000, 10.000000)">
                <path d="M40,32 L48,32 L48,34 L40,34 L40,32 Z M0,32 L26,32 L26,34 L0,34 L0,32 Z M22,14 L48,14 L48,16 L22,16 L22,14 Z M0,14 L8,14 L8,16 L0,16 L0,14 Z M26,29 L33,25 L40,29 L40,37 L33,41 L26,37 L26,29 Z M28,30 L33,27 L38,30 L38,36 L33,39 L28,36 L28,30 Z M8,11 L15,7 L22,11 L22,19 L15,23 L8,19 L8,11 Z M10,12 L15,9 L20,12 L20,18 L15,21 L10,18 L10,12 Z" id="Filter-Icon" sketch:type="MSShapeGroup"></path>
            </g>
        </g>
    </g>
</svg>